<svg width="512" height="512" viewBox="0 0 512 512" fill="none" xmlns="http://www.w3.org/2000/svg">
  <defs>
    <linearGradient id="slotz-bg" x1="118" y1="74" x2="405" y2="432" gradientUnits="userSpaceOnUse">
      <stop stop-color="#7C72E8"/>
      <stop offset="1" stop-color="#4F46B8"/>
    </linearGradient>
    <linearGradient id="slotz-sheen" x1="127" y1="88" x2="300" y2="298" gradientUnits="userSpaceOnUse">
      <stop stop-color="#FFFFFF" stop-opacity="0.34"/>
      <stop offset="1" stop-color="#FFFFFF" stop-opacity="0"/>
    </linearGradient>
    <filter id="slotz-shadow" x="58" y="56" width="420" height="420" filterUnits="userSpaceOnUse" color-interpolation-filters="sRGB">
      <feFlood flood-opacity="0" result="BackgroundImageFix"/>
      <feColorMatrix in="SourceAlpha" type="matrix" values="0 0 0 0 0 0 0 0 0 0 0 0 0 0 0 0 0 0 127 0" result="hardAlpha"/>
      <feOffset dx="20" dy="24"/>
      <feGaussianBlur stdDeviation="28"/>
      <feComposite in2="hardAlpha" operator="out"/>
      <feColorMatrix type="matrix" values="0 0 0 0 0.196 0 0 0 0 0.157 0 0 0 0 0.475 0 0 0 0.26 0"/>
      <feBlend mode="normal" in2="BackgroundImageFix" result="effect1_dropShadow"/>
      <feBlend mode="normal" in="SourceGraphic" in2="effect1_dropShadow" result="shape"/>
    </filter>
  </defs>
  <rect width="512" height="512" rx="112" fill="#FAF8FF"/>
  <g filter="url(#slotz-shadow)">
    <g transform="translate(96 82) rotate(6 160 160)">
      <rect x="24" y="24" width="304" height="304" rx="64" fill="url(#slotz-bg)"/>
      <rect x="24" y="24" width="304" height="304" rx="64" fill="url(#slotz-sheen)"/>
      <path d="M117 132V104M235 132V104M108 167H244M89 124H263C282.882 124 299 140.118 299 160V264C299 283.882 282.882 300 263 300H89C69.118 300 53 283.882 53 264V160C53 140.118 69.118 124 89 124Z" stroke="white" stroke-width="22" stroke-linecap="round" stroke-linejoin="round"/>
    </g>
  </g>
</svg>
